<svg xmlns="http://www.w3.org/2000/svg" x="0px" y="0px" width="44px" height="38px" viewBox="-0.174 0 44 38" preserveAspectRatio="xMidYMid meet">
  <path fill="#fff" d="M24.72 29.446V17.171h-4.036v4.285h-6.368l6.803-13.743H16.87L9.654 22.327l-.014.028v2.78h11.044v4.311z"/>
  <path fill="#4CAE4E" d="M37.722 15.757l-.179.166a29.25 29.25 0 0 0-1.788 1.814l-.037.041.004.055c.031.445.045.816.045 1.166 0 9.245-7.521 16.767-16.767 16.767S2.233 28.245 2.233 19 9.755 2.233 19 2.233c6.442 0 12.392 3.772 15.159 9.61l.07.148.128-.101a25.968 25.968 0 0 1 1.61-1.173l.095-.064-.051-.102C32.766 4.043 26.247 0 19 0 8.523 0 0 8.523 0 19c0 10.476 8.523 19 19 19 10.476 0 19-8.523 19-19 0-.996-.081-2.006-.239-3.002l-.039-.241z"/>
  <path fill="#4CAE4E" d="M42.78 8.791l-.094.027c-6.119 1.803-9.536 5.541-10.067 6.156l-3.095-2.321-1.694 1.694 4.824 6.432.086-.162c3.478-6.576 10.73-9.996 10.803-10.03l.109-.051-.872-1.745z"/>
</svg>
