<svg xmlns="http://www.w3.org/2000/svg" x="0px" y="0px" width="100%" viewBox="-60 0 250 40" preserveAspectRatio="xMidYMid meet">
  <path fill-rule="evenodd" clip-rule="evenodd" fill="#1A1A18" d="M111.192 29.312V7.938h3.668v12.481l5.733-6.561h4.254l-6.072 6.898 6.72 8.556h-4.19l-4.905-6.226-1.54 1.718v4.508zM109.232 16.033l-2.28 2.363c-1.08-1.135-2.404-1.685-3.946-1.685-1.357 0-2.499.458-3.424 1.378-.895.921-1.355 2.084-1.355 3.465 0 1.381.46 2.544 1.355 3.467.925.918 2.067 1.381 3.424 1.381 1.542 0 2.866-.555 3.946-1.688l2.28 2.36c-1.663 1.78-3.73 2.667-6.226 2.667-2.375 0-4.378-.765-6.013-2.329-1.632-1.565-2.437-3.529-2.437-5.858s.805-4.262 2.437-5.825c1.635-1.565 3.638-2.363 6.013-2.363 2.496 0 4.563.89 6.226 2.667M77.246 21.583c0-2.452.771-4.413 2.28-5.917 1.542-1.503 3.486-2.237 5.861-2.237 2.249 0 4.098.734 5.517 2.237 1.447 1.503 2.159 3.344 2.159 5.551 0 .46-.033.89-.064 1.289H80.915c.123 2.452 1.943 4.048 4.689 4.048 1.602 0 2.99-.583 4.19-1.777l2.221 2.143c-1.758 1.841-3.918 2.762-6.535 2.762-2.44 0-4.442-.736-5.954-2.176-1.509-1.445-2.28-3.373-2.28-5.797v-.126zM89.3 19.928c0-.918-.398-1.718-1.17-2.36-.771-.675-1.666-1.013-2.743-1.013-1.144 0-2.159.338-2.995.979-.83.644-1.291 1.442-1.386 2.393H89.3zM61.137 29.312V7.938h3.671v8.065c.707-1.47 2.404-2.452 4.53-2.452 3.578 0 5.674 2.36 5.674 6.196v9.566h-3.668v-9.047c0-2.115-1.141-3.434-3.113-3.434-2.005 0-3.422 1.47-3.422 3.587v8.893h-3.672zM59.18 16.033l-2.283 2.363c-1.08-1.135-2.404-1.685-3.946-1.685-1.355 0-2.499.458-3.422 1.378-.895.921-1.357 2.084-1.357 3.465 0 1.381.463 2.544 1.357 3.467.923.918 2.067 1.381 3.422 1.381 1.542 0 2.866-.555 3.946-1.688l2.283 2.36c-1.663 1.78-3.73 2.667-6.229 2.667-2.375 0-4.378-.765-6.013-2.329-1.632-1.565-2.434-3.529-2.434-5.858s.802-4.262 2.434-5.825c1.635-1.565 3.638-2.363 6.013-2.363 2.499 0 4.566.89 6.229 2.667"/>
  <path fill="#4CAE4E" d="M24.72 29.446V17.171h-4.036v4.285h-6.368l6.803-13.743H16.87L9.654 22.327l-.014.028v2.78h11.044v4.311z"/>
  <path fill="#4CAE4E" d="M37.722 15.757l-.179.166a29.25 29.25 0 0 0-1.788 1.814l-.037.041.004.055c.031.445.045.816.045 1.166 0 9.245-7.521 16.767-16.767 16.767S2.233 28.245 2.233 19 9.755 2.233 19 2.233c6.442 0 12.392 3.772 15.159 9.61l.07.148.128-.101a25.968 25.968 0 0 1 1.61-1.173l.095-.064-.051-.102C32.766 4.043 26.247 0 19 0 8.523 0 0 8.523 0 19c0 10.476 8.523 19 19 19 10.476 0 19-8.523 19-19 0-.996-.081-2.006-.239-3.002l-.039-.241z"/>
  <path fill="#4CAE4E" d="M42.78 8.791l-.094.027c-6.119 1.803-9.536 5.541-10.067 6.156l-3.095-2.321-1.694 1.694 4.824 6.432.086-.162c3.478-6.576 10.73-9.996 10.803-10.03l.109-.051-.872-1.745z"/>
</svg>
