<?xml version="1.0" standalone="no"?>
<!DOCTYPE svg PUBLIC "-//W3C//DTD SVG 20010904//EN"
 "http://www.w3.org/TR/2001/REC-SVG-20010904/DTD/svg10.dtd">
<svg version="1.0" xmlns="http://www.w3.org/2000/svg"
 width="298.000000pt" height="298.000000pt" viewBox="0 0 298.000000 298.000000"
 preserveAspectRatio="xMidYMid meet">
<metadata>
Created by potrace 1.11, written by Peter Selinger 2001-2013
</metadata>
<g transform="translate(0.000000,298.000000) scale(0.100000,-0.100000)"
fill="#000000" stroke="none">
<path d="M1215 2710 c-27 -4 -68 -11 -90 -15 -22 -3 -83 -20 -135 -37 -259
-84 -488 -256 -637 -478 -77 -116 -150 -292 -185 -445 -14 -67 -18 -342 -5
-415 74 -413 314 -738 667 -907 74 -36 221 -88 271 -97 19 -4 52 -10 74 -14
40 -6 297 -9 345 -3 573 71 1029 560 1057 1131 6 121 -3 270 -17 270 -4 0 -33
-26 -65 -57 l-57 -57 -4 -101 c-4 -145 -17 -216 -59 -340 -21 -59 -76 -172
-113 -229 -98 -149 -259 -290 -427 -374 -60 -29 -167 -69 -208 -76 -12 -3 -22
-5 -22 -6 0 -9 -190 -27 -270 -25 -182 5 -327 45 -498 139 -96 53 -119 69
-210 156 -172 162 -286 381 -323 620 -7 50 -7 280 1 320 30 152 55 225 117
340 75 141 189 273 313 362 116 83 301 161 445 189 83 15 311 15 370 -1 25 -7
53 -14 64 -16 205 -39 439 -188 595 -379 33 -39 121 -182 121 -195 0 -5 5 -10
11 -10 16 0 109 72 109 83 0 13 -62 121 -72 125 -4 2 -8 8 -8 14 0 20 -108
147 -191 225 -154 144 -403 265 -618 299 -58 9 -299 12 -346 4z"/>
<path d="M1100 1966 c-70 -143 -173 -352 -228 -464 -107 -214 -109 -219 -103
-359 l1 -32 347 0 c190 -1 349 -3 351 -6 3 -2 5 -64 6 -137 l1 -133 128 0
c107 0 127 2 127 15 1 49 1 526 1 638 l-1 132 -128 0 -128 0 -1 -130 c0 -72
-3 -133 -6 -136 -5 -6 -389 -6 -394 0 -2 2 90 189 203 417 113 228 210 424
215 437 l9 23 -136 -2 -136 -1 -128 -262z"/>
<path d="M2795 2126 c-97 -35 -227 -100 -320 -161 -44 -28 -165 -128 -200
-164 -16 -17 -34 -31 -39 -31 -5 0 -51 32 -103 71 l-94 70 -55 -54 -54 -53
151 -202 c83 -111 155 -202 159 -202 5 0 11 8 14 18 11 33 109 169 175 241
110 122 301 272 449 352 34 18 62 36 62 40 0 3 -12 29 -28 56 l-27 51 -90 -32z"/>
</g>
</svg>
